<svg xmlns="http://www.w3.org/2000/svg" width="81" height="79.694" viewBox="0 0 81 79.694">
  <g id="monkey" transform="translate(0 -4.128)">
    <circle id="Ellipse_65" data-name="Ellipse 65" cx="10.451" cy="10.451" r="10.451" transform="translate(0 27.645)" fill="#965a50"/>
    <circle id="Ellipse_66" data-name="Ellipse 66" cx="6.532" cy="6.532" r="6.532" transform="translate(3.919 31.564)" fill="#d4af91"/>
    <circle id="Ellipse_67" data-name="Ellipse 67" cx="10.451" cy="10.451" r="10.451" transform="translate(60.098 27.645)" fill="#965a50"/>
    <circle id="Ellipse_68" data-name="Ellipse 68" cx="6.532" cy="6.532" r="6.532" transform="translate(64.017 31.564)" fill="#ebc9a0"/>
    <path id="Path_180" data-name="Path 180" d="M111.729,44.279a14.955,14.955,0,0,1-2.083-7.489h0A27.435,27.435,0,0,0,92.662,11.426V6.741L86.13,9.354,84.823,4.128a21.878,21.878,0,0,0-8.6,5.9A27.432,27.432,0,0,0,54.775,36.789a14.955,14.955,0,0,1-2.083,7.489,22.714,22.714,0,0,0-3.142,11.454c0,14.791,14.623,26.782,32.661,26.782s32.661-11.991,32.661-26.782A22.718,22.718,0,0,0,111.729,44.279Z" transform="translate(-41.71 0)" fill="#af6e5a"/>
    <path id="Path_181" data-name="Path 181" d="M63.92,60.414a29.93,29.93,0,0,1,3.142-13.363,19.692,19.692,0,0,0,2.083-8.738c0-13.295,6.956-24.673,16.848-29.505l-1.17-4.68a21.88,21.88,0,0,0-8.6,5.9A27.432,27.432,0,0,0,54.775,36.789a14.954,14.954,0,0,1-2.083,7.489,22.714,22.714,0,0,0-3.142,11.454c0,11.939,9.529,22.049,22.689,25.506A30.376,30.376,0,0,1,63.92,60.414Z" transform="translate(-41.71 0)" fill="#965a50"/>
    <path id="Path_182" data-name="Path 182" d="M137.821,216.322c10.823,0,19.6-7.019,19.6-15.677a12.76,12.76,0,0,0-1.081-5.124,6.634,6.634,0,0,1,.96-6.943,11.751,11.751,0,0,0-16.931-16.224,3.807,3.807,0,0,1-5.091,0,11.751,11.751,0,0,0-16.931,16.224,6.634,6.634,0,0,1,.96,6.943,12.764,12.764,0,0,0-1.081,5.124C118.224,209.3,127,216.322,137.821,216.322Z" transform="translate(-97.321 -139.032)" fill="#faebc8"/>
    <path id="Path_183" data-name="Path 183" d="M118.225,201.354A13.331,13.331,0,0,0,121,209.363a29.848,29.848,0,0,1,1.676-22.57,19.693,19.693,0,0,0,2.083-8.738,37.006,37.006,0,0,1,.865-7.923c-.047.007-.092.006-.139.014a11.752,11.752,0,0,0-7.137,19.141,6.633,6.633,0,0,1,.96,6.943A12.763,12.763,0,0,0,118.225,201.354Z" transform="translate(-97.322 -139.742)" fill="#f5dcb4"/>
    <g id="Group_17" data-name="Group 17" transform="translate(33.967 51.16)">
      <path id="Path_184" data-name="Path 184" d="M218.626,305.335a1.3,1.3,0,0,1-.583-.138l-2.613-1.306a1.307,1.307,0,0,1,1.169-2.337l2.613,1.306a1.307,1.307,0,0,1-.586,2.475Z" transform="translate(-214.707 -301.415)" fill="#5d5360"/>
      <path id="Path_185" data-name="Path 185" d="M265.563,305.335a1.307,1.307,0,0,1-.585-2.475l2.613-1.306a1.307,1.307,0,0,1,1.169,2.337l-2.613,1.306A1.3,1.3,0,0,1,265.563,305.335Z" transform="translate(-256.416 -301.415)" fill="#5d5360"/>
    </g>
    <path id="Path_186" data-name="Path 186" d="M175.309,359.225a1.315,1.315,0,0,0-1.3,1.485c.811,5.793,6.3,10.273,12.961,10.273s12.15-4.48,12.961-10.273a1.315,1.315,0,0,0-1.3-1.485Z" transform="translate(-146.466 -298.92)" fill="#4b3f4e"/>
    <path id="Path_187" data-name="Path 187" d="M208.417,389.68a14.21,14.21,0,0,0,15.056,0,7.828,7.828,0,0,0-15.056,0Z" transform="translate(-175.445 -319.774)" fill="#e6646e"/>
    <path id="Path_188" data-name="Path 188" d="M249.048,412.692c.442,0,.876-.027,1.306-.066v-2.547a1.306,1.306,0,0,0-2.613,0v2.547C248.172,412.666,248.607,412.692,249.048,412.692Z" transform="translate(-208.548 -340.629)" fill="#ff8087"/>
    <path id="Path_189" data-name="Path 189" d="M12.81,259.44c-3.853,8.72-7.69,22.59-9.973,36.28a2.608,2.608,0,0,0,2.582,3.022H15.784a2.62,2.62,0,0,0,2.584-2.228,165.876,165.876,0,0,1,6.962-28.8Z" transform="translate(-2.359 -214.921)" fill="#af6e5a"/>
    <path id="Path_190" data-name="Path 190" d="M8.5,298.742a199.2,199.2,0,0,1,10.016-35.53l-5.708-3.772c-3.853,8.72-7.69,22.59-9.973,36.28a2.608,2.608,0,0,0,2.582,3.022Z" transform="translate(-2.359 -214.92)" fill="#965a50"/>
    <path id="Path_191" data-name="Path 191" d="M54.243,144.59a4.018,4.018,0,0,1,3.143,3.993v5.224l4.2-4.2a10.666,10.666,0,0,1,13.744-1.3,10.478,10.478,0,0,1,1.261,15.859l-5.857,5.857a10.036,10.036,0,0,1-14.152,0l-1.675-1.675a18.29,18.29,0,0,1-5.357-12.933v-6.981A3.922,3.922,0,0,1,54.243,144.59Z" transform="translate(-41.709 -118.177)" fill="#f5dcb4"/>
    <path id="Path_192" data-name="Path 192" d="M74.775,147.941a10.7,10.7,0,0,0-13.19,1.667l-4.2,4.2v-5.224a4.018,4.018,0,0,0-3.143-3.993,3.922,3.922,0,0,0-4.7,3.844v6.981a18.29,18.29,0,0,0,5.357,12.933l1.675,1.675C55.143,164.706,62.6,148.151,74.775,147.941Z" transform="translate(-41.71 -118.177)" fill="#ebc9a0"/>
    <path id="Path_193" data-name="Path 193" d="M379.577,259.44c3.853,8.72,7.69,22.59,9.973,36.28a2.608,2.608,0,0,1-2.582,3.022H376.6a2.62,2.62,0,0,1-2.584-2.227,165.876,165.876,0,0,0-6.962-28.8Z" transform="translate(-308.987 -214.921)" fill="#af6e5a"/>
    <path id="Path_194" data-name="Path 194" d="M297.91,144.59a4.018,4.018,0,0,0-3.143,3.993v5.224l-4.2-4.2a10.666,10.666,0,0,0-13.744-1.3,10.478,10.478,0,0,0-1.261,15.859l5.857,5.857a10.036,10.036,0,0,0,14.152,0l1.675-1.675a18.29,18.29,0,0,0,5.357-12.933v-6.981A3.922,3.922,0,0,0,297.91,144.59Z" transform="translate(-229.403 -118.177)" fill="#f5dcb4"/>
  </g>
</svg>
