<svg xmlns="http://www.w3.org/2000/svg" width="81" height="80.777" viewBox="0 0 81 80.777">
  <g id="order" transform="translate(0 -0.706)">
    <path id="Path_195" data-name="Path 195" d="M192.009,9.976V23.184a1.73,1.73,0,0,1-1.73,1.73H164.118a1.73,1.73,0,0,1-1.73-1.73V9.976a1.73,1.73,0,0,1,1.73-1.73H190.28A1.729,1.729,0,0,1,192.009,9.976Z" transform="translate(-136.697 -6.347)" fill="none"/>
    <path id="Path_196" data-name="Path 196" d="M176.014,71.374v.586h-11.9a1.73,1.73,0,0,1-1.73-1.73V68.365a7.142,7.142,0,0,1,1.479-2.147,7.065,7.065,0,0,1,5.007-2.085A7.239,7.239,0,0,1,176.014,71.374Z" transform="translate(-136.697 -53.392)" fill="none"/>
    <g id="Group_18" data-name="Group 18" transform="translate(1.189 1.899)">
      <rect id="Rectangle_72" data-name="Rectangle 72" width="16.668" height="16.668" fill="none"/>
      <rect id="Rectangle_73" data-name="Rectangle 73" width="16.668" height="16.668" transform="translate(61.957)" fill="none"/>
    </g>
    <path id="Path_197" data-name="Path 197" d="M178.79,109.291v-.311a3.06,3.06,0,0,0-3.059-3.059h-.02a3.059,3.059,0,0,0-2.717,1.654l-.342-.1v-2.537a3.682,3.682,0,0,0-7.364,0v-3.772a3.7,3.7,0,0,0-3.7-3.7h-.3a3.7,3.7,0,0,0-3.7,3.7v-15.6a4.426,4.426,0,1,0-8.852,0V111.34h-1.427a3.614,3.614,0,0,0-3.613,3.613v2.794a16.845,16.845,0,0,0,6.7,13.488c2.7,2.023,5.222,4.592,5.384,7.2v4.2H178.79V109.291Z" transform="translate(-120.968 -67.709)" fill="none"/>
    <path id="Path_198" data-name="Path 198" d="M341.518,241.152v33.341h-2.875V240.842a3.057,3.057,0,0,0-1.632-2.707,3.045,3.045,0,0,1,1.426-.352h.02a3.059,3.059,0,0,1,3.059,3.059v.311Z" transform="translate(-283.694 -199.57)" fill="none"/>
    <rect id="Rectangle_74" data-name="Rectangle 74" width="27.291" height="7.889" transform="translate(32.794 72.408)" fill="none"/>
    <rect id="Rectangle_75" data-name="Rectangle 75" width="27.291" height="2.733" transform="translate(32.794 77.563)" fill="none"/>
    <path id="Path_199" data-name="Path 199" d="M.53,19.583a1.673,1.673,0,0,0,1.007.2c.4,0,16.382.02,16.609-.037a1.2,1.2,0,0,0,.9-1.156c0-.062.011-15.956,0-16.647A1.212,1.212,0,0,0,17.79.742c-.271,0-15.693,0-16.515,0A1.215,1.215,0,0,0,0,1.934C0,2.128,0,18.51,0,18.578A1.212,1.212,0,0,0,.53,19.583Zm10.67-9.32L16.67,4.793V15.732Zm3.791,7.147H4.053L9.522,11.94ZM9.522,8.585,4.053,3.115H14.992ZM7.844,10.263,2.375,15.732V4.793Z" transform="translate(0 -0.03)" fill="#993000"/>
    <path id="Path_200" data-name="Path 200" d="M410.486,19.225a1.689,1.689,0,0,0,.2-1.018c0-.411.014-16.647-.2-16.967a1.212,1.212,0,0,0-1-.528c-.072,0-16.033-.013-16.65,0A1.2,1.2,0,0,0,391.645,1.9V7.6a1.187,1.187,0,0,0,2.373,0V4.763l5.469,5.469L394.018,15.7V12.9a1.187,1.187,0,0,0-2.373,0v5.667a1.2,1.2,0,0,0,1.189,1.187c.055,0,16.638.019,16.85-.016A1.2,1.2,0,0,0,410.486,19.225Zm-7.642-8.992,5.469-5.469V15.7ZM395.7,3.085h10.939l-5.469,5.469ZM406.634,17.38H395.7l5.469-5.469Z" transform="translate(-329.685)" fill="#993000"/>
    <path id="Path_201" data-name="Path 201" d="M218.8,38.489a1.182,1.182,0,0,0,.839-.348l7.341-7.341a1.186,1.186,0,0,0-1.678-1.678l-6.5,6.5-2.719-2.719a1.186,1.186,0,0,0-1.678,1.678l3.558,3.558A1.183,1.183,0,0,0,218.8,38.489Z" transform="translate(-180.193 -23.628)" fill="#993000"/>
    <path id="Path_202" data-name="Path 202" d="M389,144.953a1.186,1.186,0,0,0-1.422.89,17.554,17.554,0,0,1-9.964,11.007,1.187,1.187,0,1,0,.953,2.173,19.744,19.744,0,0,0,11.324-12.648A1.186,1.186,0,0,0,389,144.953Z" transform="translate(-317.278 -121.401)" fill="#993000"/>
    <path id="Path_203" data-name="Path 203" d="M65.129,156.851a17.36,17.36,0,0,1-9.965-11.009,1.186,1.186,0,0,0-2.312.534,19.744,19.744,0,0,0,11.324,12.648,1.187,1.187,0,0,0,.953-2.173Z" transform="translate(-44.464 -121.401)" fill="#993000"/>
    <path id="Path_204" data-name="Path 204" d="M174.746,71.253H173.67V41.3a4.251,4.251,0,0,0-4.246-4.246H169.4a4.243,4.243,0,0,0-1.872.433v-.23a4.873,4.873,0,0,0-7.381-4.173,4.892,4.892,0,0,0-4.869-4.485h-.3a4.856,4.856,0,0,0-2.512.7V19.786h15.768a2.921,2.921,0,0,0,2.917-2.917V3.661A2.92,2.92,0,0,0,168.242.745h-26.16a2.92,2.92,0,0,0-2.917,2.916V16.869a2.921,2.921,0,0,0,2.084,2.794v5.418a1.187,1.187,0,0,0,2.373,0v-7.19a3.24,3.24,0,1,1,6.48,0v15.6a1.187,1.187,0,0,0,2.373,0,2.515,2.515,0,0,1,2.512-2.512h.3a2.515,2.515,0,0,1,2.512,2.512V37.26a1.187,1.187,0,0,0,2.373,0,2.5,2.5,0,0,1,4.991,0V39.8a1.187,1.187,0,0,0,.849,1.138l.342.1a1.186,1.186,0,0,0,1.39-.592,1.868,1.868,0,0,1,1.663-1.013h.021A1.875,1.875,0,0,1,171.3,41.3V71.253H150.664v-.5c0-.024,0-.049,0-.073-.159-2.566-2.129-5.282-5.856-8.074a15.727,15.727,0,0,1-6.223-12.54V47.276a2.43,2.43,0,0,1,2.427-2.427h.24v6.167a1.187,1.187,0,0,0,2.373,0V43.663s0-.009,0-.014V30.389a1.187,1.187,0,1,0-2.373,0V42.477h-.239a4.805,4.805,0,0,0-4.8,4.8V50.07a18.111,18.111,0,0,0,7.173,14.439c3.081,2.308,4.777,4.482,4.908,6.288v.456h-.837a1.187,1.187,0,0,0-1.187,1.187v7.889a1.187,1.187,0,0,0,1.187,1.187h16.182a1.187,1.187,0,0,0,1.185-1.247c0-.02,0-.04,0-.059a1.187,1.187,0,0,0-1.389-1.067H148.641V73.626h24.919v5.516H169.15a1.212,1.212,0,0,0-.253-.017,1.187,1.187,0,0,0-1.141,1.175c0,.02,0,.041,0,.058a1.187,1.187,0,0,0,1.186,1.156h5.8a1.187,1.187,0,0,0,1.187-1.187V72.439A1.187,1.187,0,0,0,174.746,71.253ZM146.861,12.276a5.621,5.621,0,0,0-5.323,3.832V3.661a.544.544,0,0,1,.544-.543h26.16a.544.544,0,0,1,.544.543V16.869a.545.545,0,0,1-.544.544h-15.79A5.62,5.62,0,0,0,146.861,12.276Z" transform="translate(-114.661 -0.033)" fill="#993000"/>
    <path id="Path_205" data-name="Path 205" d="M220.352,468.647v.707a1.187,1.187,0,0,0,2.373,0v-.707a1.187,1.187,0,0,0-2.373,0Z" transform="translate(-185.491 -392.913)" fill="#993000"/>
  </g>
</svg>
